<svg width="32" height="32" viewBox="0 0 32 32" fill="none" xmlns="http://www.w3.org/2000/svg">
<g clip-path="url(#clip0_27_1025)">
<path d="M16 0C24.8366 0 32 7.16344 32 16C32 24.8366 24.8366 32 16 32C7.16344 32 0 24.8366 0 16C0 7.16344 7.16344 0 16 0Z" fill="#FF8400"/>
<path d="M11.9096 8.68631C11.9074 8.41566 11.7984 8.15682 11.6065 7.96603C11.4145 7.77524 11.155 7.66791 10.8843 7.66737H8.07589C7.80543 7.66792 7.54614 7.77531 7.3545 7.96616C7.16287 8.15701 7.0544 8.41586 7.05273 8.68631V16.6863C7.0544 16.957 7.16279 17.216 7.35437 17.4072C7.54595 17.5984 7.80524 17.7063 8.07589 17.7074H10.8843C11.1553 17.7068 11.4152 17.5992 11.6072 17.408C11.7992 17.2167 11.9079 16.9573 11.9096 16.6863V8.68631ZM23.8654 14.9621C24.0697 14.798 24.2237 14.5798 24.3098 14.3322C24.3959 14.0847 24.4106 13.818 24.3521 13.5625C24.2937 13.3071 24.1646 13.0732 23.9794 12.8877C23.7943 12.7022 23.5607 12.5726 23.3054 12.5137C23.5105 12.3503 23.6654 12.1324 23.7522 11.885C23.839 11.6376 23.8543 11.3707 23.7963 11.115C23.7382 10.8592 23.6092 10.6251 23.4241 10.4394C23.2389 10.2537 23.0051 10.124 22.7496 10.0653C22.9743 9.88418 23.1374 9.63799 23.2166 9.36049C23.2958 9.08299 23.2872 8.78778 23.192 8.51537C23.0967 8.24297 22.9195 8.00672 22.6846 7.83905C22.4497 7.67139 22.1687 7.58053 21.8801 7.57895L13.9601 7.66737C13.6902 7.66847 13.4317 7.77618 13.2408 7.96704C13.05 8.15788 12.9423 8.41641 12.9412 8.68631V16.6863C12.9412 17.9495 16.9812 20.2821 17.198 21.5284C17.3327 22.3537 17.1538 24.4211 17.7096 24.4211C18.6527 24.4211 19.8633 24.0589 19.8633 21.9642C19.8633 20.1158 18.6527 17.7179 18.6527 17.7179H23.5517C23.8945 17.7178 24.2252 17.5916 24.4809 17.3633C24.7366 17.135 24.8994 16.8206 24.9382 16.48C24.9769 16.1394 24.889 15.7964 24.6912 15.5165C24.4933 15.2366 24.1994 15.0392 23.8654 14.9621Z" fill="white"/>
</g>
<defs>
<clipPath id="clip0_27_1025">
<rect width="32" height="32" fill="white" transform="matrix(1 0 0 -1 0 32)"/>
</clipPath>
</defs>
</svg>
