<svg xmlns="http://www.w3.org/2000/svg" width="20" height="20" viewBox="0 0 20 20" fill="none">
    <g clip-path="url(#clip0_83_2379)">
        <path d="M11.4999 19.8676V12.9412H13.8087L14.2499 10.0588H11.4999V8.20586C11.4999 7.41174 11.8822 6.64704 13.1175 6.64704H14.3675V4.20586C13.6126 4.0784 12.8724 4.01468 12.1469 4.01468C9.88224 4.01468 8.39694 5.39704 8.39694 7.88233V10.0588H5.88224V12.9412H8.39694V19.8676C3.66165 19.1323 0.0292969 15.0147 0.0292969 10.0588C0.0292969 4.58821 4.47047 0.132324 9.95577 0.132324C15.4264 0.132324 19.8822 4.58821 19.8822 10.0588C19.8822 15.0147 16.2499 19.1323 11.4999 19.8676Z" fill="#4676ED"/>
        <path d="M11.5005 12.9411V19.8676C11.0005 19.946 10.4858 19.9852 9.95634 19.9852C9.42693 19.9852 8.90733 19.946 8.39752 19.8676V12.9411H5.88281V10.0588H8.39752V7.8823C8.39752 5.397 9.88281 4.01465 12.1475 4.01465C12.873 4.01465 13.6132 4.07837 14.3681 4.20583V6.647H13.1181C11.8828 6.647 11.5005 7.41171 11.5005 8.20582V10.0588H14.2505L13.8093 12.9411H11.5005Z" fill="white"/>
    </g>
    <defs>
        <clipPath id="clip0_83_2379">
            <rect width="20" height="20" fill="white"/>
        </clipPath>
    </defs>
</svg>