<svg width="309" height="309" viewBox="0 0 309 309" fill="none" xmlns="http://www.w3.org/2000/svg">
<path d="M284.859 48.2813H117.806C116.896 48.2811 116.005 48.5379 115.235 49.0222C114.465 49.5064 113.847 50.1984 113.453 51.0184C113.059 51.8383 112.905 52.7529 113.008 53.6567C113.111 54.5605 113.468 55.4168 114.036 56.127L135.28 82.6816C137.534 85.5122 140.399 87.7967 143.66 89.3643C146.922 90.9319 150.495 91.7421 154.114 91.7344H304.172C305.452 91.7344 306.68 91.2257 307.586 90.3203C308.491 89.4148 309 88.1867 309 86.9062V72.4219C308.992 66.0217 306.446 59.8858 301.921 55.3602C297.395 50.8346 291.259 48.2888 284.859 48.2813Z" fill="#FFB125"/>
<path d="M309 82.0781H154.114C151.945 82.0781 149.805 81.5904 147.85 80.6511C145.896 79.7118 144.178 78.345 142.823 76.6518L118.675 46.4659C115.518 42.5064 111.508 39.3108 106.943 37.1171C102.379 34.9235 97.3779 33.7886 92.3138 33.7969H24.1406C17.7381 33.7969 11.5979 36.3403 7.07063 40.8675C2.54338 45.3947 0 51.535 0 57.9375L0 251.062C0 257.465 2.54338 263.605 7.07063 268.132C11.5979 272.66 17.7381 275.203 24.1406 275.203H284.859C291.262 275.203 297.402 272.66 301.929 268.132C306.457 263.605 309 257.465 309 251.062V82.0781Z" fill="#FCD354"/>
<path d="M84.032 194.28C80.3627 194.28 77.1627 193.619 74.432 192.296C71.7013 190.931 69.5893 189.096 68.096 186.792C66.6453 184.445 65.92 181.779 65.92 178.792H77.44C77.44 180.456 78.016 181.821 79.168 182.888C80.32 183.912 81.9413 184.424 84.032 184.424C85.44 184.424 86.6347 184.168 87.616 183.656C88.5973 183.101 89.344 182.376 89.856 181.48C90.368 180.541 90.624 179.496 90.624 178.344C90.624 176.595 90.048 175.144 88.896 173.992C87.7867 172.84 86.1653 172.264 84.032 172.264C82.7947 172.264 81.6853 172.456 80.704 172.84C79.7653 173.224 78.9547 173.715 78.272 174.312L72.96 165.48L85.888 157.544L85.312 156.52H67.904V146.28H100.416V156.456L83.584 166.696L78.208 164.712C79.104 164.456 80.0427 164.264 81.024 164.136C82.048 164.008 83.0933 163.944 84.16 163.944C87.8293 163.944 91.008 164.52 93.696 165.672C96.384 166.824 98.4533 168.488 99.904 170.664C101.397 172.797 102.144 175.357 102.144 178.344V179.112C102.144 182.056 101.397 184.68 99.904 186.984C98.4533 189.245 96.3627 191.037 93.632 192.36C90.944 193.64 87.744 194.28 84.032 194.28ZM120.173 193.256V182.12H127.853C129.858 182.12 131.65 181.843 133.229 181.288C134.85 180.691 136.215 179.859 137.325 178.792C138.434 177.683 139.287 176.36 139.885 174.824C140.482 173.245 140.781 171.475 140.781 169.512C140.781 167.464 140.482 165.672 139.885 164.136C139.287 162.557 138.434 161.256 137.325 160.232C136.215 159.165 134.85 158.376 133.229 157.864C131.65 157.309 129.858 157.032 127.853 157.032H120.173V145.896H127.341C131.565 145.896 135.255 146.493 138.413 147.688C141.613 148.883 144.279 150.547 146.413 152.68C148.546 154.771 150.146 157.203 151.213 159.976C152.279 162.749 152.813 165.693 152.813 168.808V170.216C152.813 173.075 152.279 175.891 151.213 178.664C150.146 181.395 148.546 183.869 146.413 186.088C144.279 188.264 141.613 190.013 138.413 191.336C135.255 192.616 131.565 193.256 127.341 193.256H120.173ZM109.549 193.256V145.896H121.453V193.256H109.549ZM170.689 194.152C166.678 194.152 163.564 192.851 161.345 190.248C159.169 187.603 158.081 183.571 158.081 178.152V157.672H169.729V178.472C169.729 180.051 170.198 181.331 171.137 182.312C172.076 183.293 173.334 183.784 174.913 183.784C176.492 183.784 177.772 183.293 178.753 182.312C179.734 181.331 180.225 180.008 180.225 178.344V157.672H191.873V193H182.657V178.152H183.297C183.297 181.779 182.828 184.787 181.889 187.176C180.993 189.523 179.649 191.272 177.857 192.424C176.065 193.576 173.846 194.152 171.201 194.152H170.689ZM217.306 193.512C213.466 193.512 210.394 193.043 208.09 192.104C205.829 191.165 204.186 189.608 203.162 187.432C202.138 185.256 201.626 182.312 201.626 178.6L201.69 148.456H212.442L212.378 178.92C212.378 180.499 212.783 181.715 213.594 182.568C214.447 183.379 215.663 183.784 217.242 183.784H222.106V193.512H217.306ZM196.506 166.12V157.672H222.106V166.12H196.506ZM230.013 193V157.672H241.661V193H230.013ZM225.533 166.12V157.672H241.661V166.12H225.533ZM234.813 154.856C232.68 154.856 231.101 154.323 230.077 153.256C229.096 152.147 228.605 150.739 228.605 149.032C228.605 147.325 229.096 145.939 230.077 144.872C231.101 143.763 232.658 143.208 234.749 143.208C236.882 143.208 238.44 143.763 239.421 144.872C240.402 145.939 240.893 147.325 240.893 149.032C240.893 150.739 240.402 152.147 239.421 153.256C238.44 154.323 236.904 154.856 234.813 154.856Z" fill="white" fill-opacity="0.5"/>
</svg>
