<svg width="16" height="16" viewBox="0 0 16 16" fill="none" xmlns="http://www.w3.org/2000/svg">
<g clip-path="url(#clip0_7_2693)">
<path d="M5.33317 7.33334C5.70137 7.33334 5.99984 7.63181 5.99984 8.00001C5.99984 9.10458 6.89527 10 7.99984 10C9.10441 10 9.99984 9.10458 9.99984 8.00001C9.99984 7.63181 10.2983 7.33334 10.6665 7.33334C11.0347 7.33334 11.3332 7.63181 11.3332 8.00001C11.3332 9.84095 9.84078 11.3333 7.99984 11.3333C6.1589 11.3333 4.6665 9.84095 4.6665 8.00001C4.6665 7.63181 4.96498 7.33334 5.33317 7.33334Z" fill="#4B5563"/>
<path fill-rule="evenodd" clip-rule="evenodd" d="M11.3333 4.66666H12.7585C13.8078 4.66666 14.6787 5.47755 14.7534 6.52417L15.1276 11.7625C15.2654 13.6921 13.7372 15.3333 11.8027 15.3333H4.19728C2.26281 15.3333 0.734586 13.6921 0.872412 11.7625L1.24658 6.52417C1.32134 5.47755 2.19221 4.66666 3.24149 4.66666H4.66667V3.99999C4.66667 2.15905 6.15906 0.666656 8 0.666656C9.84094 0.666656 11.3333 2.15905 11.3333 3.99999V4.66666ZM6 4.66666H10V3.99999C10 2.89542 9.10457 1.99999 8 1.99999C6.89543 1.99999 6 2.89542 6 3.99999V4.66666ZM3.24149 5.99999C2.89173 5.99999 2.60144 6.27028 2.57652 6.61915L2.20237 11.8575C2.11966 13.0152 3.03659 14 4.19728 14H11.8027C12.9634 14 13.8803 13.0152 13.7977 11.8575L13.4235 6.61915C13.3986 6.27028 13.1083 5.99999 12.7585 5.99999H3.24149Z" fill="#4B5563"/>
</g>
<defs>
<clipPath id="clip0_7_2693">
<rect width="16" height="16" fill="white"/>
</clipPath>
</defs>
</svg>
