<svg width="28" height="28" viewBox="0 0 28 28" fill="currentColor" xmlns="http://www.w3.org/2000/svg">
<path d="M20.5442 25.9796C20.2121 25.9798 19.8849 25.8987 19.5913 25.7434L14.1375 22.8769C14.0952 22.8543 14.048 22.8425 14.0001 22.8425C13.9522 22.8425 13.905 22.8543 13.8627 22.8769L8.4097 25.7434C8.07179 25.9212 7.69085 26.0009 7.30998 25.9735C6.92912 25.946 6.56354 25.8125 6.25461 25.5881C5.94568 25.3636 5.70573 25.0572 5.56192 24.7035C5.4181 24.3498 5.37615 23.9628 5.44083 23.5865L6.48208 17.5149C6.49008 17.4673 6.48629 17.4185 6.47103 17.3727C6.45577 17.327 6.42952 17.2856 6.39458 17.2524L1.98633 12.95C1.71263 12.6834 1.51909 12.3454 1.42763 11.9744C1.33617 11.6033 1.35045 11.2141 1.46885 10.8508C1.58725 10.4875 1.80504 10.1646 2.09755 9.91874C2.39005 9.67286 2.74557 9.51382 3.12383 9.45963L9.21645 8.57501C9.26386 8.56811 9.30888 8.54976 9.3476 8.52156C9.38633 8.49335 9.41759 8.45614 9.4387 8.41313L12.1626 2.88751C12.3313 2.54496 12.5925 2.2565 12.9168 2.05478C13.241 1.85307 13.6152 1.74615 13.997 1.74615C14.3789 1.74615 14.7531 1.85307 15.0773 2.05478C15.4015 2.2565 15.6627 2.54496 15.8315 2.88751L18.5571 8.41138C18.5784 8.45425 18.6097 8.49135 18.6484 8.51954C18.6871 8.54772 18.732 8.56615 18.7793 8.57326L24.8772 9.45876C25.2553 9.51325 25.6106 9.67246 25.9028 9.91838C26.1951 10.1643 26.4128 10.4871 26.5311 10.8503C26.6495 11.2135 26.6639 11.6025 26.5726 11.9734C26.4813 12.3444 26.2881 12.6823 26.0147 12.9491L21.6021 17.2489C21.5673 17.2822 21.5411 17.3236 21.5258 17.3693C21.5106 17.415 21.5067 17.4638 21.5146 17.5114L22.5558 23.583C22.6059 23.8764 22.5915 24.1771 22.5135 24.4644C22.4356 24.7516 22.2959 25.0184 22.1044 25.2461C21.9128 25.4739 21.674 25.6572 21.4044 25.7833C21.1348 25.9094 20.8409 25.9752 20.5433 25.9761L20.5442 25.9796ZM14.0001 21.0919C14.3319 21.0918 14.6588 21.1729 14.9521 21.3281L20.4051 24.1938C20.4533 24.2213 20.5087 24.234 20.5641 24.2301C20.6196 24.2262 20.6726 24.2059 20.7166 24.1719C20.7624 24.1404 20.798 24.0962 20.819 24.0448C20.84 23.9933 20.8455 23.9368 20.8347 23.8823L19.7926 17.8098C19.7369 17.4829 19.7613 17.1475 19.8637 16.8322C19.9661 16.5169 20.1435 16.2311 20.3806 15.9994L24.7932 11.6988C24.8326 11.6602 24.8604 11.6114 24.8735 11.5578C24.8867 11.5043 24.8845 11.4481 24.8674 11.3957C24.8503 11.3433 24.8189 11.2967 24.7767 11.2612C24.7345 11.2257 24.6833 11.2027 24.6287 11.1948L18.5317 10.3084C18.2035 10.2609 17.8917 10.1341 17.6234 9.93914C17.3551 9.74416 17.1383 9.48679 16.9917 9.18926L14.2626 3.66451C14.2381 3.61507 14.2004 3.57344 14.1535 3.54434C14.1067 3.51524 14.0526 3.49982 13.9975 3.49982C13.9423 3.49982 13.8882 3.51524 13.8414 3.54434C13.7945 3.57344 13.7568 3.61507 13.7323 3.66451L11.0085 9.18751C10.8618 9.48515 10.6449 9.74259 10.3764 9.93758C10.1079 10.1326 9.79599 10.2592 9.46758 10.3066L3.37145 11.1948C3.31677 11.2025 3.26537 11.2254 3.22308 11.2609C3.1808 11.2965 3.14934 11.3431 3.13229 11.3957C3.11524 11.4482 3.11328 11.5045 3.12663 11.558C3.13999 11.6116 3.16812 11.6604 3.20783 11.6988L7.61958 15.9994C7.85666 16.2311 8.03401 16.5169 8.13642 16.8322C8.23883 17.1475 8.26325 17.4829 8.20758 17.8098L7.16545 23.8823C7.156 23.9368 7.16205 23.9929 7.18292 24.0442C7.20378 24.0955 7.23863 24.1399 7.28349 24.1724C7.32835 24.2048 7.38142 24.224 7.43666 24.2278C7.4919 24.2316 7.54709 24.2198 7.59595 24.1938L13.0481 21.3273C13.3416 21.1727 13.6683 21.0919 14.0001 21.0919Z" fill="currentColor"/>
</svg>
