<svg xmlns="http://www.w3.org/2000/svg" width="20" height="20" viewBox="0 0 20 20" fill="none">
    <g clip-path="url(#clip0_83_2389)">
        <path d="M9.97066 19.8824C4.50007 19.8824 0.0441895 15.4265 0.0441895 9.95589C0.0441895 4.47059 4.50007 0.0294189 9.97066 0.0294189C15.456 0.0294189 19.8971 4.47059 19.8971 9.95589C19.8971 15.4265 15.456 19.8824 9.97066 19.8824Z" fill="url(#paint0_linear_83_2389)"/>
        <path d="M6.80877 9.83818L13.3676 6.76465L10.7499 11.7941C9.19112 13.4215 8.35778 14.2352 8.24994 14.2352C8.1421 14.2352 8.03916 14.1372 7.94112 13.9411L6.76465 10.6764L6.80877 9.83818Z" fill="#C8DAEA"/>
        <path d="M10.1914 12.6029C9.72085 12.9852 9.24045 13.4215 8.75026 13.9117C8.26007 14.4019 8.04438 14.4019 8.1032 13.9117L8.32379 11.5146L10.1914 12.6029Z" fill="#A9C6D8"/>
        <path d="M6.79375 10.7941L4.36728 10C4.17121 9.92157 4.10747 9.79413 4.1761 9.61766C4.19081 9.55883 4.23493 9.5147 4.33787 9.44117C4.70062 9.18627 8.01434 7.93138 14.279 5.67648C14.4555 5.61765 14.5977 5.60785 14.7055 5.64707C14.779 5.67648 14.8232 5.70589 14.8526 5.82354C14.8673 5.86765 14.882 5.95589 14.882 6.04413C14.882 6.10295 14.8673 6.16177 14.8673 6.25001C14.828 6.86765 14.2349 9.4706 13.0879 14.0588C13.029 14.3333 12.8771 14.4755 12.632 14.4853C12.4849 14.4853 12.3232 14.4559 12.132 14.2941C11.4114 13.6765 8.9261 12 8.36728 11.6324C8.33787 11.6029 8.33787 11.5882 8.32316 11.5588C8.32316 11.5294 8.33787 11.5 8.36728 11.4706C11.2594 8.90196 12.7398 7.48039 12.8085 7.20589C12.8232 7.17648 12.7938 7.16177 12.7496 7.17648C12.4555 7.27942 7.47022 10.4412 6.9114 10.7794C6.8918 10.799 6.85257 10.8039 6.79375 10.7941Z" fill="white"/>
    </g>
    <defs>
        <linearGradient id="paint0_linear_83_2389" x1="-0.249928" y1="19.8824" x2="-0.249928" y2="0.0294189" gradientUnits="userSpaceOnUse">
            <stop stop-color="#1D93D2"/>
            <stop offset="1" stop-color="#38B0E3"/>
        </linearGradient>
        <clipPath id="clip0_83_2389">
            <rect width="20" height="20" fill="white"/>
        </clipPath>
    </defs>
</svg>