<svg xmlns="http://www.w3.org/2000/svg" width="80" height="80" viewBox="0 0 80 80" fill="none">
    <path d="M72.4998 36.6667V56.6667C72.6955 58.3555 72.5069 60.0668 71.9479 61.6725C71.3889 63.2781 70.4741 64.7366 69.2719 65.9388C68.0697 67.141 66.6112 68.0558 65.0056 68.6148C63.3999 69.1737 61.6887 69.3624 59.9998 69.1667H19.9998C18.3109 69.3624 16.5997 69.1737 14.994 68.6148C13.3884 68.0558 11.9299 67.141 10.7277 65.9388C9.52546 64.7366 8.61066 63.2781 8.05169 61.6725C7.49272 60.0668 7.30405 58.3555 7.4998 56.6667V23.3333C7.30405 21.6445 7.49272 19.9332 8.05169 18.3275C8.61066 16.7219 9.52546 15.2634 10.7277 14.0612C11.9299 12.859 13.3884 11.9442 14.994 11.3852C16.5997 10.8263 18.3109 10.6376 19.9998 10.8333H43.3331C43.9962 10.8333 44.6321 11.0967 45.1009 11.5656C45.5697 12.0344 45.8331 12.6703 45.8331 13.3333C45.8331 13.9964 45.5697 14.6323 45.1009 15.1011C44.6321 15.5699 43.9962 15.8333 43.3331 15.8333H19.9998C14.7431 15.8333 12.4998 18.0767 12.4998 23.3333V54.1667L20.9665 45.7C21.5958 45.0755 22.4465 44.7251 23.3331 44.7251C24.2198 44.7251 25.0704 45.0755 25.6998 45.7L28.8331 48.8333C29.1447 49.1387 29.5635 49.3098 29.9998 49.3098C30.4361 49.3098 30.8549 49.1387 31.1665 48.8333L47.6331 32.3667C48.2625 31.7422 49.1132 31.3917 49.9998 31.3917C50.8864 31.3917 51.7371 31.7422 52.3665 32.3667L67.4998 47.5V36.6667C67.4998 36.0036 67.7632 35.3677 68.232 34.8989C68.7009 34.4301 69.3368 34.1667 69.9998 34.1667C70.6628 34.1667 71.2987 34.4301 71.7676 34.8989C72.2364 35.3677 72.4998 36.0036 72.4998 36.6667ZM26.6431 25.8333C25.5364 25.8364 24.4762 26.2786 23.6953 27.0628C22.9143 27.847 22.4766 28.9091 22.4781 30.0158C22.4797 31.1225 22.9204 32.1834 23.7035 32.9654C24.4866 33.7474 25.5481 34.1866 26.6548 34.1866C27.7615 34.1866 28.823 33.7474 29.6061 32.9654C30.3892 32.1834 30.8299 31.1225 30.8315 30.0158C30.833 28.9091 30.3952 27.847 29.6143 27.0628C28.8334 26.2786 27.7732 25.8364 26.6665 25.8333H26.6431ZM56.6665 19.1667H60.8331V23.3333C60.8331 23.9964 61.0965 24.6323 61.5654 25.1011C62.0342 25.5699 62.6701 25.8333 63.3331 25.8333C63.9962 25.8333 64.6321 25.5699 65.1009 25.1011C65.5697 24.6323 65.8331 23.9964 65.8331 23.3333V19.1667H69.9998C70.6628 19.1667 71.2987 18.9033 71.7676 18.4344C72.2364 17.9656 72.4998 17.3297 72.4998 16.6667C72.4998 16.0036 72.2364 15.3677 71.7676 14.8989C71.2987 14.4301 70.6628 14.1667 69.9998 14.1667H65.8331V10C65.8331 9.33696 65.5697 8.70107 65.1009 8.23223C64.6321 7.76339 63.9962 7.5 63.3331 7.5C62.6701 7.5 62.0342 7.76339 61.5654 8.23223C61.0965 8.70107 60.8331 9.33696 60.8331 10V14.1667H56.6665C56.0034 14.1667 55.3675 14.4301 54.8987 14.8989C54.4299 15.3677 54.1665 16.0036 54.1665 16.6667C54.1665 17.3297 54.4299 17.9656 54.8987 18.4344C55.3675 18.9033 56.0034 19.1667 56.6665 19.1667Z"
          fill="black" fill-opacity="0.24"/>
</svg>