<svg width="32" height="32" viewBox="0 0 32 32" fill="none" xmlns="http://www.w3.org/2000/svg">
<g clip-path="url(#clip0_27_1015)">
<path d="M16 32C24.8366 32 32 24.8366 32 16C32 7.16344 24.8366 0 16 0C7.16344 0 0 7.16344 0 16C0 24.8366 7.16344 32 16 32Z" fill="#2169DF"/>
<path d="M11.9096 23.3137C11.9074 23.5843 11.7984 23.8432 11.6065 24.034C11.4145 24.2248 11.155 24.3321 10.8843 24.3326H8.07589C7.80543 24.3321 7.54614 24.2247 7.3545 24.0338C7.16287 23.843 7.0544 23.5841 7.05273 23.3137V15.3137C7.0544 15.043 7.16279 14.784 7.35437 14.5928C7.54595 14.4016 7.80524 14.2937 8.07589 14.2926H10.8843C11.1553 14.2932 11.4152 14.4008 11.6072 14.592C11.7992 14.7833 11.9079 15.0427 11.9096 15.3137V23.3137ZM23.8654 17.0379C24.0697 17.202 24.2237 17.4202 24.3098 17.6678C24.3959 17.9153 24.4106 18.182 24.3521 18.4375C24.2937 18.6929 24.1646 18.9268 23.9794 19.1123C23.7943 19.2978 23.5607 19.4274 23.3054 19.4863C23.5105 19.6497 23.6654 19.8676 23.7522 20.115C23.839 20.3624 23.8543 20.6293 23.7963 20.885C23.7382 21.1408 23.6092 21.3749 23.4241 21.5606C23.2389 21.7463 23.0051 21.876 22.7496 21.9347C22.9743 22.1158 23.1374 22.362 23.2166 22.6395C23.2958 22.917 23.2872 23.2122 23.192 23.4846C23.0967 23.757 22.9195 23.9933 22.6846 24.1609C22.4497 24.3286 22.1687 24.4195 21.8801 24.4211L13.9601 24.3326C13.6902 24.3315 13.4317 24.2238 13.2408 24.033C13.05 23.8421 12.9423 23.5836 12.9412 23.3137V15.3137C12.9412 14.0505 16.9812 11.7179 17.198 10.4716C17.3327 9.64632 17.1538 7.57895 17.7096 7.57895C18.6527 7.57895 19.8633 7.94105 19.8633 10.0358C19.8633 11.8842 18.6527 14.2821 18.6527 14.2821H23.5517C23.8945 14.2822 24.2252 14.4084 24.4809 14.6367C24.7366 14.865 24.8994 15.1794 24.9382 15.52C24.9769 15.8606 24.889 16.2036 24.6912 16.4835C24.4933 16.7634 24.1994 16.9608 23.8654 17.0379Z" fill="white"/>
</g>
<defs>
<clipPath id="clip0_27_1015">
<rect width="32" height="32" fill="white"/>
</clipPath>
</defs>
</svg>
