<svg xmlns="http://www.w3.org/2000/svg" width="20" height="20" viewBox="0 0 20 20" fill="none">
    <g clip-path="url(#clip0_83_2384)">
        <path d="M19.9135 9.99996C19.9135 15.467 15.4752 19.92 9.99349 19.92C4.51177 19.92 0.0734863 15.467 0.0734863 9.99996C0.0734863 4.51824 4.51177 0.0799561 9.99349 0.0799561C15.4752 0.0799561 19.9135 4.51824 19.9135 9.99996Z" fill="#DA0000"/>
        <path fill-rule="evenodd" clip-rule="evenodd" d="M16.6065 9.99994C16.6065 11.4304 16.5135 12.4885 16.3273 13.1743C16.1804 13.7475 15.7248 14.1884 15.1663 14.35C14.4707 14.5362 12.7463 14.6293 9.99322 14.6293C7.24011 14.6293 5.51574 14.5362 4.82012 14.35C4.26166 14.1884 3.80608 13.7475 3.65911 13.1743C3.47297 12.4885 3.37988 11.4304 3.37988 9.99994C3.37988 8.5597 3.47297 7.49667 3.65911 6.81084C3.80608 6.23769 4.26166 5.7968 4.82012 5.63514C5.51574 5.45878 7.24011 5.37061 9.99322 5.37061C12.7463 5.37061 14.4707 5.45878 15.1663 5.63514C15.7248 5.7968 16.1804 6.23769 16.3273 6.81084C16.5135 7.49667 16.6065 8.5597 16.6065 9.99994ZM12.1095 9.99994L8.67055 8.01594V11.9839L12.1095 9.99994Z" fill="white"/>
    </g>
    <defs>
        <clipPath id="clip0_83_2384">
            <rect width="19.987" height="19.84" fill="white" transform="translate(0 0.0799561)"/>
        </clipPath>
    </defs>
</svg>